<svg xmlns="http://www.w3.org/2000/svg" width="375" height="492" viewBox="0 0 375 492">
    <g fill="none" fill-rule="evenodd">
        <g fill-rule="nonzero">
            <path d="M0 0h375v492H0z"/>
            <path stroke="#33435B" d="M271.64 0v492M186.273 0c.014 8.581 0 61.83 0 71.912 0 67.425-11.358 130.341-41.924 173.788-30.567 43.447-42.255 113.702-42.34 173.788-.012 8.87-.012 33.04 0 72.512"/>
            <g stroke="#000" stroke-opacity=".1">
                <path d="M102-883v176.877c0 113.334 11.358 219.09 41.925 292.12 30.566 73.03 42.254 191.12 42.34 292.119.012 14.907.012 55.535 0 121.884M271.634-883V0"/>
            </g>
        </g>
    </g>
</svg>
