<svg xmlns="http://www.w3.org/2000/svg" xmlns:xlink="http://www.w3.org/1999/xlink" width="470" height="468" viewBox="0 0 470 468">
    <defs>
        <linearGradient id="a" x1="71.312%" x2="28.688%" y1="0%" y2="86.289%">
            <stop offset="0%" stop-color="#0146F5"/>
            <stop offset="100%" stop-color="#0034B9"/>
        </linearGradient>
        <rect id="c" width="128.765" height="103.77" rx="4"/>
        <filter id="b" width="123.3%" height="128.9%" x="-11.6%" y="-8.7%" filterUnits="objectBoundingBox">
            <feOffset dy="6" in="SourceAlpha" result="shadowOffsetOuter1"/>
            <feGaussianBlur in="shadowOffsetOuter1" result="shadowBlurOuter1" stdDeviation="4"/>
            <feColorMatrix in="shadowBlurOuter1" values="0 0 0 0 0 0 0 0 0 0 0 0 0 0 0 0 0 0 0.05 0"/>
        </filter>
        <path id="e" d="M0 0h18.62a4 4 0 0 1 4 4v95.77a4 4 0 0 1-4 4H0V0z"/>
        <filter id="d" width="232.6%" height="128.9%" x="-66.3%" y="-8.7%" filterUnits="objectBoundingBox">
            <feOffset dy="6" in="SourceAlpha" result="shadowOffsetOuter1"/>
            <feGaussianBlur in="shadowOffsetOuter1" result="shadowBlurOuter1" stdDeviation="4"/>
            <feColorMatrix in="shadowBlurOuter1" values="0 0 0 0 0 0 0 0 0 0 0 0 0 0 0 0 0 0 0.05 0"/>
        </filter>
        <rect id="g" width="128.765" height="103.77" rx="4"/>
        <filter id="f" width="123.3%" height="128.9%" x="-11.6%" y="-8.7%" filterUnits="objectBoundingBox">
            <feOffset dy="6" in="SourceAlpha" result="shadowOffsetOuter1"/>
            <feGaussianBlur in="shadowOffsetOuter1" result="shadowBlurOuter1" stdDeviation="4"/>
            <feColorMatrix in="shadowBlurOuter1" values="0 0 0 0 0 0 0 0 0 0 0 0 0 0 0 0 0 0 0.05 0"/>
        </filter>
    </defs>
    <g fill="none" fill-rule="evenodd">
        <path fill="#0146F5" fill-opacity=".1" d="M445.981 184.225c-1.098-52.62-42.524-109.826-96.23-131.95-53.705-22.126-119.688-9.27-183.975 17.638-64.286 26.81-126.876 67.77-139.354 120.59-12.478 52.821 25.056 117.6 71.274 169.125 46.218 51.525 101.122 89.894 147.74 83.317 46.518-6.677 84.75-58.302 123.581-108.132 38.73-49.831 77.962-97.967 76.964-150.588z"/>
        <path fill="#001532" stroke="#1A1A1A" stroke-linecap="round" stroke-linejoin="round" d="M320.89 403H185.092c-16.076 0-29.11-13.126-29.11-29.319V30.319C155.982 14.127 169.016 1 185.092 1H320.78C336.917 1 350 14.177 350 30.431v343.25C350 389.874 336.967 403 320.89 403z"/>
        <path fill="#FFF" d="M168 258.909v112.517c0 11.062 8.703 20.03 19.437 20.03H318.22c10.735 0 19.437-8.968 19.437-20.03V258.909H168z"/>
        <path fill="url(#a)" d="M150.822 0h-18.906v4.58c0 5.35-4.216 9.686-9.418 9.686h-75.34c-5.2 0-9.417-4.337-9.417-9.686V0H19.437C8.703 0 0 8.952 0 19.993v239.868h169.657V19.374c0-10.7-8.433-19.374-18.835-19.374z" transform="translate(168 13)"/>
        <g fill-rule="nonzero" transform="translate(185 343)">
            <rect width="136" height="24.416" fill="#0146F5" rx="8"/>
            <rect width="60.903" height="6.104" x="38" y="10" fill="#FFF" rx="3.052"/>
        </g>
        <g transform="translate(197.162 220.748)">
            <g fill-rule="nonzero">
                <use fill="#000" filter="url(#b)" xlink:href="#c"/>
                <use fill="#FFF" xlink:href="#c"/>
            </g>
            <path fill="#F3F3F3" fill-rule="nonzero" d="M4 0h120.765a4 4 0 0 1 4 4v63.643H0V4a4 4 0 0 1 4-4z"/>
            <path fill="#AFB4BE" d="M30.658 83.785c0 5.094-4.118 9.224-9.198 9.224-5.079 0-9.197-4.13-9.197-9.224s4.118-9.224 9.197-9.224c5.08 0 9.198 4.13 9.198 9.224"/>
            <rect width="79.712" height="4.612" x="36.79" y="76.867" fill="#AFB4BE" fill-rule="nonzero" rx="2.306"/>
            <rect width="73.58" height="4.612" x="36.79" y="86.091" fill="#DDE3E9" fill-rule="nonzero" rx="2.306"/>
            <path fill="#AFB4BE" fill-rule="nonzero" d="M56.718 26.135V10.76h30.658v30.747H72.047c0 8.49-6.863 15.373-15.329 15.373-8.466 0-15.33-6.883-15.33-15.373 0-8.49 6.864-15.373 15.33-15.373zm0 0v15.373h15.33c0-8.49-6.864-15.373-15.33-15.373z"/>
        </g>
        <g fill-rule="nonzero">
            <g transform="translate(168.162 220.748)">
                <use fill="#000" filter="url(#d)" xlink:href="#e"/>
                <use fill="#FFF" xlink:href="#e"/>
            </g>
            <path fill="#F3F3F3" d="M168.162 220.748h18.621a4 4 0 0 1 4 4v63.643h-22.62v-67.643z"/>
            <path fill="#AFB4BE" d="M168.162 297.615h7.803a2.306 2.306 0 0 1 0 4.612h-7.803v-4.612z"/>
            <path fill="#DDE3E9" d="M168.162 306.84h1.672a2.306 2.306 0 0 1 0 4.612h-1.672v-4.613z"/>
        </g>
        <g transform="translate(62.162 220.748)">
            <g fill-rule="nonzero">
                <use fill="#000" filter="url(#f)" xlink:href="#g"/>
                <use fill="#FFF" xlink:href="#g"/>
            </g>
            <path fill="#F3F3F3" fill-rule="nonzero" d="M4 0h120.765a4 4 0 0 1 4 4v63.643H0V4a4 4 0 0 1 4-4z"/>
            <path fill="#AFB4BE" d="M30.658 83.785c0 5.094-4.118 9.224-9.198 9.224-5.079 0-9.197-4.13-9.197-9.224s4.118-9.224 9.197-9.224c5.08 0 9.198 4.13 9.198 9.224"/>
            <rect width="79.712" height="4.612" x="36.79" y="76.867" fill="#AFB4BE" fill-rule="nonzero" rx="2.306"/>
            <rect width="73.58" height="4.612" x="36.79" y="86.091" fill="#DDE3E9" fill-rule="nonzero" rx="2.306"/>
            <path fill="#AFB4BE" fill-rule="nonzero" d="M56.718 26.135V10.76h30.658v30.747H72.047c0 8.49-6.863 15.373-15.329 15.373-8.466 0-15.33-6.883-15.33-15.373 0-8.49 6.864-15.373 15.33-15.373zm0 0v15.373h15.33c0-8.49-6.864-15.373-15.33-15.373z"/>
        </g>
        <g fill="#FFF" fill-rule="nonzero">
            <g transform="translate(180.343 136.163)">
                <rect width="125.413" height="6.104" rx="3.052"/>
                <rect width="145.296" height="6.104" y="12.208" rx="3.052"/>
                <rect width="79.53" height="6.104" y="24.416" rx="3.052"/>
            </g>
            <g transform="translate(180.343 87.33)">
                <rect width="97.444" height="12.208" y="12.208" rx="6.104"/>
                <rect width="60.903" height="6.104" rx="3.052"/>
            </g>
        </g>
        <g>
            <g fill="#FFF" fill-rule="nonzero" stroke="#AFB4BE">
                <path d="M429.781 374.306a3.33 3.33 0 0 0-3.33 3.33v76.05a3.33 3.33 0 1 0 6.66 0v-76.05a3.33 3.33 0 0 0-3.33-3.33z"/>
                <path d="M395.306 359.373h68.95c0 19.13-15.435 34.639-34.475 34.639s-34.475-15.509-34.475-34.64zM401.052 465.214h57.339c-6.185-9.283-16.717-15.395-28.67-15.395-11.952 0-22.485 6.112-28.67 15.395z"/>
            </g>
            <g stroke-linecap="round" stroke-linejoin="round">
                <path stroke="#AFB4BE" d="M343.171 344.178c-4.201 6.577-3.65 13.962 1.448 30.677 5.1 16.714 13.348 40.847 24.75 72.4l10.319-2.302c-2.211-25.915-4.613-44.39-7.208-55.424-4.442-18.893-8.906-35.211-10.999-41.07-3.292-9.217-14.108-10.859-18.31-4.281z"/>
                <path stroke="#AFB4BE" d="M335.51 341.764c-6.878-4.133-18.415 1.176-18.408 7.084.024 17.68 16.15 101.004 16.992 106.271.842 5.267 9.862 6.659 10.387.017.837-10.568 2.39-47.15.836-64.083a879.506 879.506 0 0 0-2.012-19.584c-1.773-10.87-3.305-26.87-7.795-29.705z"/>
                <path fill="#FFF" stroke="#0146F5" d="M379.79 435.816c-.877-7.522-1.004-11.6-.383-12.23 3.513-3.571-3.494-7.138-2.38-8.744 1.935-2.786-1.712-4.84-1.662-6.736.64-24.008-3.9-45.187-13.62-63.537-5.593-13.922-30.142-2.683-28.763 5.064 3.131 17.586 30.613 84.129 31.545 89.368l15.263-3.185z"/>
                <path fill="#FFF" stroke="#153EE9" d="M315.129 356.16c0 14.797 5.676 46.323 17.027 94.579l14.357-.482c-.207-2.878.228-11.847 1.801-16.558s-2.23-5.323-1.127-7.642c3.25-6.836-1.102-6.853-.674-9.998 4.74-34.842-2.488-50.673-1.726-51.067 1.446-.745 59.287 5.782 76.635 5.782 25.015 0 35.364-15.794 36.203-45.05h-49.554c-10.09 1.08-62.718 11.709-82.263 15.362-8.368 1.565-10.68 8.96-10.68 15.074z"/>
            </g>
            <g fill="#001532">
                <path d="M347.678 453.275c-4.57-1.399-4.792 1.302-12.77.385-3.263-.375-5.789 2.123-8.426 1.978-12.159-.672-18.639 3.17-17.311 6.285 1.662 3.9 33.46 4.375 38.164 3.753 2.761-.364 3.15-11.54.343-12.4M380.433 439.677c1.788-1.261 6.323 8.119 6.323 8.119s2.499 4.302-1.117 6.336c-3.616 2.035-10.464 6.175-13.952 8.152-2.906 1.649-7.572 4.321-12.49 3.7-5.791-.735-4.588-.733-6.476-1.6-2.383-1.096-1.868-4.174 4.16-6.569 4.177-1.659 5.79-2.559 6.464-4.133 1.994-4.655 3.052-9.918 4.606-9.853 8.423.346 7.319-.509 12.482-4.152"/>
            </g>
            <path fill="#FFF" stroke="#979797" d="M407.7 236.747c3.959 1.542 7.846-.938 13.278-4.22l-3.41 24.17h20.138l-6.932-32.368c3.866-4.547 6.483-10.118 6.046-16.36-.641-9.16-7.44-12.629-14.598-12.63-6.9 0-14.134 3.222-16.52 7.677-4.863 9.08-6.904 30.099 1.999 33.73z"/>
            <path fill="#001532" d="M426.989 218.88a4.805 4.805 0 0 0 2.316-4.114 4.8 4.8 0 0 0-4.794-4.806 4.766 4.766 0 0 0-2.848.94 4.945 4.945 0 0 0-.292.104c-2.318-3.723-4.242-6.56-6.947-8.076-16.626 1.435-16.35-9.369-14.243-15.54.145-2.18 1.842-5.388 3.913-5.388 2.145 0 3.887 3.436 3.923 5.612.063.024.124.043.184.056.223-1.97 1.686-4.668 3.458-4.668 1.477 0 2.74 1.877 3.248 3.643.873-1.66 2.592-3.32 4.08-2.98 1.376.315 2.172 2.255 2.322 4.025h.014c1.148-1.26 2.802-2.244 4.041-1.749 1.2.48 1.705 2.226 1.683 3.876 1.096-1.005 2.477-1.683 3.548-1.255 1.41.564 1.861 2.88 1.623 4.73 1.276-.84 2.81-1.308 3.818-.685 1.407.87 1.331 3.585.615 5.392.492-.077.952-.019 1.28.244.94.754.441 2.905-.34 3.86a2.291 2.291 0 0 1-.453.422c3.754 8.907-1.351 18.667-6.537 21.782a75.592 75.592 0 0 1-3.927-5.087c.11-.108.215-.22.315-.337z"/>
            <g>
                <g fill="#FFF">
                    <path stroke="#8B96A4" d="M366.557 298.38l-26.011-17.346c-4.073-5.789-9.992-16.397-15.153-19.078-5.162-2.68-5.899 21.529 11.866 26.46l18.263 19.902 11.035-9.938z"/>
                    <path stroke="#153EE9" stroke-linecap="round" stroke-linejoin="round" d="M430.767 251.205l-6.516-2.34c-17.146 11.648-29.147 44.778-39.7 47.583-9.977 2.652-22.32-3.793-36.875-12.124l-6.637 9.817c11.42 17.798 39.695 29.214 53.19 23.98 21.576-8.367 33.034-42.912 36.538-66.916z"/>
                </g>
                <path fill="#001532" d="M415.857 241.176c0 34.914-18.93 61.353-23.78 85.88-.42 2.126-.968 6.337 1.938 6.337h63.61c-2.997-40.457-8.245-70.611-23.422-95.104l-18.346 2.887z"/>
                <path fill="#FFF" stroke="#AFB4BE" stroke-linecap="round" stroke-linejoin="round" d="M403.312 313.064l-26.405 19.488c-1.788.485-17.907 4.684-22.76 7.875-4.852 3.192-4.847 5.602 1.71 7.073s19.143 1.154 27.145-9.036l26.147-10.898-5.837-14.502z"/>
                <path fill="#FFF" stroke="#153EE9" stroke-linecap="round" stroke-linejoin="round" d="M410.83 331.072c-5.505 1.556-11.639 2.835-18.4 3.835l-6.81-10.712c8.22-4.607 16.835-10.998 25.846-19.172 2.268-16.575 7.615-37.925 15.994-66.417l5.758-.33c.518-.078 1.089-.088 1.71-.117C482 236 459.18 261.516 456.508 262.287c14.328 15.677 16.034 44.296 5.12 85.856l-48.015-6.17c-1.302-3.303-2.23-6.904-2.783-10.901z"/>
                <path fill-rule="nonzero" stroke="#0146F5" stroke-linecap="round" stroke-linejoin="round" d="M453.028 282.773S449 307.737 444 313.54c-10.71 9.304-14.695 10.23-33.5 17.681M405.5 309.889l17.5-12.052c4.204-22.404 10.893-33.54 20.069-33.409"/>
            </g>
        </g>
        <g>
            <path fill="#FFF" stroke="#0146F5" d="M77.38 272.243L95.333 378.36l11.89 77.952 14.86 2.888-2.431-178.739z"/>
            <path fill="#FFF" stroke="#153EE9" stroke-linecap="round" stroke-linejoin="round" d="M107.608 290.276c.656-2.553 1.279-5.019 1.863-7.371l-51.264 1.878c.728 34.406 8.897 86.057 8.006 88.236-.396.968-11.088 16.795-32.077 47.481L46.5 431c27.167-32.28 41.5-49.78 43-52.5 1.417-2.57 4.828-23.07 10.231-61.5"/>
            <path stroke="#153EE9" stroke-linecap="round" stroke-linejoin="round" d="M113.854 290.226c.656-2.553 1.279-5.018 1.863-7.37l-51.263 1.878c.727 34.4 10.065 86.46 8.546 89.766-1.012 2.204-12.346 19.037-34 50.5"/>
            <path fill="#001532" d="M19.647 438.645l15.269-20.166 13.778 10.684-5.204 6.712c1.787 5.543 5.947 14.78 12.482 27.708a1 1 0 0 1-1.527 1.224l-27.538-22.64-.948 1.266-6.312-4.788zM107.414 467.019L105 442.179l17-1.679 1 8.5c4.796 3.416 14.296 8.732 28.499 15.945a1 1 0 0 1-.493 1.891l-35.691-1.418v1.601h-7.9z"/>
            <path fill="#FFF" stroke="#AFB4BE" stroke-linecap="round" stroke-linejoin="round" d="M148.196 257.317l28.628-12.566c5.016-4.994 12.687-14.414 18.236-16.157 5.549-1.743 2.07 22.225-16.28 23.998l-21.443 16.428-9.14-11.703zm-111.9 7.067l16.359 2.06c-14.142 31.391-21.917 47.924-22.791 49.935-5.364 12.341-20.776 15.943-27.68 12.2-.887-.481-1.514-2.792.995-4.096 6.252-3.249 15.412-9.153 16.816-11.292 1.913-2.919 7.347-19.187 16.3-48.807z"/>
            <g fill-rule="nonzero">
                <path fill="#001532" stroke="#001532" stroke-linecap="round" stroke-linejoin="round" d="M110.674 150.612c5.48 9.357 8.4 19.754 8.762 31.191.543 17.157 11.546 17.157 10.792 27.649h-26.967l-13.538-33.033 20.951-25.807z"/>
                <path fill="#FFF" stroke="#AFB4BE" d="M82.212 199.782h16.797l-4.843-15.967 1.244.972c3.36 2.621 6.327 4.095 8.345 4.095 5.78 0 9.181-13.172 9.181-27.01 0-8.893-7.478-16.11-16.711-16.11-9.234 0-16.712 7.217-16.712 16.11 0 2.247 1.109 5.229 3.135 8.586l.075.124-.511 29.2z"/>
                <path fill="#001532" d="M91.512 168.11a4.52 4.52 0 0 0 .148-1.148c0-2.59-2.186-4.688-4.882-4.688-2.696 0-4.881 2.099-4.881 4.688 0 2.22 1.608 4.08 3.768 4.564 1.222 10.584 1.774 18.297 1.656 23.139-.122 4.98-1.026 9.91-2.712 14.787h-32c-2.532-7.078-2.532-13.255 0-18.533 3.796-7.917 9.074-6.67 14.101-15.003 5.027-8.333-.52-40.942 33.628-33.332 20.61 6.77 9.22 17.187 0 20.832-4.158 1.644-7.1 3.209-8.826 4.694z"/>
            </g>
            <g>
                <path fill="#FFF" stroke="#153EE9" stroke-linecap="round" stroke-linejoin="round" d="M93.137 199.754l6.824-1.172c14.863 14.448 20.929 49.158 30.834 53.753 9.365 4.345 22.64.141 38.42-5.535l4.832 10.82C159.71 273.165 129.88 279.496 117.5 272c-19.795-11.987-25.08-47.998-24.363-72.246z"/>
                <path fill="#153EE9" d="M63.39 293.903h60.38c5.206 0-3.129-21.72-15.351-62.903-3.028-10.203-5.198-23.16-8.736-35.462H85.621c-14.404 23.216-19.385 51.802-22.23 90.152"/>
                <path fill="#FFF" stroke="#0146F5" stroke-linecap="round" stroke-linejoin="round" d="M36 310.889l-14.517-3.816c8.168-50.646 24.33-88.027 63.47-112.14h6.908c10.444 35.591 16.488 72.114 18.133 109.567l-56.342 13.928C49 297 53.987 274.918 57.77 261.52 45.438 283.76 43.731 289.117 36 310.89z"/>
                <path fill-rule="nonzero" stroke="#0146F5" stroke-linecap="round" stroke-linejoin="round" d="M91.913 195.038l-9.565 25.873 13.419 7.99-3.834 7.61c2.462 2.687 4.964 6.77 7.504 12.25 2.54 5.48 5.061 12.234 7.563 20.259-.203-6.2-2.617-20.692-7.243-43.477-1.17-5.761-3.784-15.93-7.844-30.505z"/>
            </g>
        </g>
    </g>
</svg>
