<svg xmlns="http://www.w3.org/2000/svg" width="87" height="24" viewBox="0 0 87 24">
    <g fill="none" fill-rule="evenodd">
        <path fill="#0146F5" fill-rule="nonzero" d="M15.46 21.668v-9.182l.74.77c1.022 1.062 2.29 1.59 3.83 1.59.889 0 1.708-.17 2.462-.51a6.016 6.016 0 0 0 1.969-1.413 6.681 6.681 0 0 0 1.312-2.107c.315-.8.473-1.667.473-2.604a7.23 7.23 0 0 0-.474-2.632A6.497 6.497 0 0 0 24.45 3.45a6.29 6.29 0 0 0-1.998-1.428 5.882 5.882 0 0 0-2.474-.522c-1.596 0-2.833.576-3.75 1.74l-.768.975V1.918H12.07l-.06.018h-.388v10.26l-.745-.8c-1.004-1.076-2.261-1.61-3.799-1.61-.923 0-1.763.174-2.525.522a5.997 5.997 0 0 0-1.969 1.424 6.404 6.404 0 0 0-1.272 2.114 7.34 7.34 0 0 0-.45 2.573c0 .956.158 1.841.474 2.659a6.497 6.497 0 0 0 1.321 2.128 6.16 6.16 0 0 0 1.984 1.415c.754.34 1.582.51 2.489.51 1.578 0 2.806-.576 3.723-1.74l.769-.975v2.297h3.846v-1.037l-.01-.008zM12.07 1.048h3.389c.469 0 .85.378.862.848.983-.841 2.208-1.264 3.656-1.264 1.009 0 1.953.2 2.83.599.869.397 1.626.938 2.269 1.623a7.366 7.366 0 0 1 1.498 2.41c.356.92.534 1.904.534 2.948a7.9 7.9 0 0 1-.535 2.926 7.551 7.551 0 0 1-1.482 2.378 6.878 6.878 0 0 1-2.248 1.613 6.776 6.776 0 0 1-2.814.586c-1.42 0-2.66-.399-3.708-1.193v6.785l.009.01v1.396c0 .48-.386.87-.862.87h-3.846a.866.866 0 0 1-.862-.846c-.98.84-2.196 1.263-3.63 1.263-1.025 0-1.973-.195-2.84-.586a7.023 7.023 0 0 1-2.259-1.61 7.366 7.366 0 0 1-1.498-2.41A8.178 8.178 0 0 1 0 16.419c0-1.008.169-1.968.506-2.877a7.274 7.274 0 0 1 1.444-2.398 6.86 6.86 0 0 1 2.248-1.628c.876-.4 1.838-.6 2.881-.6 1.416 0 2.648.403 3.682 1.203V1.936c0-.48.386-.87.862-.87h.276a.857.857 0 0 1 .172-.017z"/>
        <path fill="#001532" d="M35.068 9.984c-.41 0-.792-.074-1.143-.22a2.576 2.576 0 0 1-.925-.66 2.998 2.998 0 0 1-.623-1.07c-.15-.427-.225-.92-.225-1.482V6.45c0-.553.075-1.05.225-1.49.15-.44.358-.811.623-1.113.266-.302.578-.533.938-.693.36-.16.75-.24 1.169-.24.54 0 .98.108 1.323.324.343.216.608.497.797.842V0h1.85v9.841h-1.85V8.715c-.172.345-.45.643-.835.893-.386.25-.827.376-1.324.376zm.553-1.464c.488 0 .886-.166 1.195-.498.308-.333.462-.844.462-1.535v-.103c0-.674-.14-1.18-.417-1.522-.279-.34-.675-.511-1.189-.511-.522 0-.923.175-1.201.524-.278.35-.417.861-.417 1.535v.103c0 .674.145 1.176.436 1.509.292.332.668.498 1.13.498zm6.016-6.37c-.3 0-.55-.098-.751-.292a.974.974 0 0 1-.302-.731c0-.294.1-.538.302-.732a1.04 1.04 0 0 1 .751-.291c.3 0 .553.097.758.29a.964.964 0 0 1 .309.733.964.964 0 0 1-.309.731 1.062 1.062 0 0 1-.758.292zm-.912.919h1.85V9.84h-1.85V3.07zm6.48 9.271c-.54 0-1.011-.056-1.414-.168a2.859 2.859 0 0 1-1.002-.48 2.191 2.191 0 0 1-.636-.744c-.15-.289-.246-.61-.289-.964h1.85c.06.302.204.541.43.718.228.177.58.266 1.06.266.566 0 .99-.143 1.272-.428.283-.284.424-.695.424-1.23V8.287a2.56 2.56 0 0 1-.353.473 2.246 2.246 0 0 1-.495.395c-.188.12-.391.216-.61.285a2.31 2.31 0 0 1-.7.103c-.411 0-.794-.075-1.15-.226a2.66 2.66 0 0 1-.918-.641 2.995 2.995 0 0 1-.63-1.017 3.75 3.75 0 0 1-.231-1.353v-.09c0-.484.075-.929.225-1.334.15-.406.357-.756.623-1.05a2.93 2.93 0 0 1 .938-.672c.36-.164.749-.247 1.169-.247.548 0 .991.108 1.33.324.338.216.605.497.802.842v-1.01h1.85V9.31c-.008 1.01-.323 1.768-.944 2.273-.62.505-1.488.757-2.602.757zm.09-4.208c.488 0 .886-.164 1.194-.492.309-.328.463-.781.463-1.36v-.09c0-.579-.142-1.032-.424-1.36-.283-.328-.681-.492-1.195-.492-.522 0-.923.17-1.201.511-.279.341-.418.792-.418 1.354v.103c0 .57.148 1.017.443 1.34.296.324.675.486 1.137.486zm6.003-5.982c-.3 0-.55-.098-.751-.292a.974.974 0 0 1-.302-.731c0-.294.1-.538.302-.732a1.04 1.04 0 0 1 .751-.291c.3 0 .553.097.758.29a.964.964 0 0 1 .309.733.964.964 0 0 1-.309.731 1.062 1.062 0 0 1-.758.292zm-.912.919h1.85V9.84h-1.85V3.07zm5.952 6.902c-.71 0-1.25-.18-1.618-.538-.368-.358-.553-.891-.553-1.599V4.403h-.86V3.069h.86V1.606h1.85v1.463h1.413v1.334h-1.413v3.263c0 .267.062.468.187.602.124.134.31.2.558.2.137 0 .264-.01.38-.032.115-.021.224-.054.327-.097v1.45a4.158 4.158 0 0 1-.475.123 3.272 3.272 0 0 1-.656.059zm4.206.013a3.12 3.12 0 0 1-.867-.117 2.03 2.03 0 0 1-.713-.363 1.734 1.734 0 0 1-.489-.628 2.127 2.127 0 0 1-.18-.912c0-.398.086-.734.257-1.01.172-.277.412-.501.72-.674a3.547 3.547 0 0 1 1.105-.375c.428-.078.899-.117 1.413-.117h.758v-.272c0-.406-.075-.714-.225-.926-.15-.211-.439-.317-.867-.317-.368 0-.64.086-.816.26-.175.172-.285.405-.328.698h-1.76c.026-.397.122-.742.29-1.036.167-.293.383-.535.648-.725.266-.19.576-.33.932-.42.355-.091.738-.137 1.15-.137.41 0 .787.046 1.13.136.343.091.642.236.9.434.248.199.44.458.577.777.137.32.206.708.206 1.166V9.84h-1.811v-.816a2.405 2.405 0 0 1-.765.687c-.312.18-.734.272-1.265.272zm.552-1.308c.411 0 .756-.106 1.034-.317.279-.212.418-.508.418-.887v-.57h-.72c-.54 0-.959.069-1.259.207-.3.138-.45.388-.45.751 0 .25.078.449.232.596.154.146.403.22.745.22zM67.97 0h1.85v9.841h-1.85V0zM32.55 14.291h1.863v1.062c.189-.328.47-.613.842-.855.372-.241.807-.362 1.304-.362.41 0 .794.075 1.15.226.355.152.665.374.93.667.266.294.474.656.624 1.088.15.432.225.928.225 1.49v.103c0 .56-.075 1.057-.225 1.489-.15.432-.353.794-.61 1.088-.266.302-.576.53-.932.686a2.87 2.87 0 0 1-1.162.233c-.523 0-.968-.114-1.336-.343-.369-.229-.638-.507-.81-.835v3.34H32.55v-9.077zm3.456 5.452c.514 0 .908-.17 1.182-.512.274-.34.411-.844.411-1.508v-.104c0-.69-.15-1.204-.45-1.54-.3-.337-.685-.506-1.156-.506-.488 0-.884.17-1.188.512-.304.34-.456.852-.456 1.534v.104c0 .682.148 1.189.443 1.521.296.333.7.499 1.214.499zm4.668-5.452h1.863v1.295c.214-.457.492-.803.835-1.036.342-.233.788-.354 1.336-.362v1.748c-.694-.009-1.23.116-1.606.375-.377.26-.565.712-.565 1.36v3.393h-1.863V14.29zm8.2 5.49c.523 0 .928-.18 1.215-.543.287-.363.43-.868.43-1.515v-.09c0-.648-.143-1.156-.43-1.522-.287-.367-.692-.55-1.214-.55-.514 0-.917.178-1.208.537-.291.358-.437.86-.437 1.508v.104c0 .647.142 1.154.424 1.521.283.367.69.55 1.22.55zm-.012 1.425c-.506 0-.972-.082-1.4-.246a3.322 3.322 0 0 1-1.118-.7 3.08 3.08 0 0 1-.745-1.08 3.654 3.654 0 0 1-.27-1.431v-.104c0-.527.09-1.008.27-1.444.18-.436.428-.805.745-1.107a3.391 3.391 0 0 1 1.124-.706 3.845 3.845 0 0 1 1.407-.252c.505 0 .974.082 1.406.246.433.164.808.397 1.124.7.309.301.553.666.733 1.093.18.428.27.905.27 1.431v.104c0 .535-.09 1.018-.27 1.45-.18.432-.429.799-.745 1.1a3.308 3.308 0 0 1-1.125.7 3.935 3.935 0 0 1-1.406.246zm7.25 0c-.411 0-.793-.073-1.144-.22a2.576 2.576 0 0 1-.925-.66 2.998 2.998 0 0 1-.623-1.069c-.15-.427-.225-.921-.225-1.482v-.104c0-.553.075-1.049.225-1.49.15-.44.358-.81.623-1.113.266-.302.578-.533.938-.693.36-.16.75-.24 1.17-.24.539 0 .98.109 1.322.325.343.215.609.496.797.841v-4.079h1.85v9.842h-1.85v-1.127c-.171.345-.45.643-.835.893-.385.25-.827.376-1.323.376zm.552-1.463c.488 0 .887-.166 1.195-.499.308-.332.462-.844.462-1.534v-.104c0-.673-.139-1.18-.417-1.521-.279-.341-.675-.512-1.188-.512-.523 0-.923.175-1.202.525-.278.35-.417.86-.417 1.534v.104c0 .673.145 1.176.437 1.508.29.333.668.499 1.13.499zm7.289 1.463c-.326 0-.628-.05-.906-.149-.278-.1-.52-.252-.726-.46a2.126 2.126 0 0 1-.482-.796 3.41 3.41 0 0 1-.173-1.146v-4.364h1.85v4.105c0 .449.098.788.295 1.017.197.228.488.343.874.343.394 0 .726-.123.996-.37.27-.245.404-.619.404-1.12v-3.975h1.85v6.773h-1.85v-1.062a2.19 2.19 0 0 1-.777.86c-.347.23-.799.344-1.355.344zm8.611 0c-.488 0-.944-.076-1.368-.227a3.062 3.062 0 0 1-1.098-.667 3.092 3.092 0 0 1-.726-1.08c-.176-.428-.263-.918-.263-1.47v-.104c0-.544.09-1.034.27-1.47.18-.436.428-.809.744-1.12a3.267 3.267 0 0 1 1.105-.693c.42-.16.87-.24 1.35-.24.385 0 .76.046 1.123.137.364.09.692.24.983.447.283.207.518.479.707.815.188.337.304.747.347 1.23h-1.76c-.06-.388-.204-.677-.43-.867-.228-.19-.538-.285-.932-.285-.488 0-.878.175-1.17.524-.29.35-.436.849-.436 1.496v.104c0 .682.143 1.195.43 1.54.287.346.692.519 1.214.519.377 0 .7-.108.97-.324.27-.216.426-.544.47-.984h1.682a3.069 3.069 0 0 1-.27 1.107 2.455 2.455 0 0 1-.642.848c-.274.242-.604.43-.99.563-.385.134-.821.201-1.31.201zm6.775-.013c-.71 0-1.25-.18-1.619-.537-.368-.359-.552-.892-.552-1.6v-3.431h-.86v-1.334h.86v-1.463h1.85v1.463h1.413v1.334h-1.413v3.263c0 .268.062.468.186.602.124.134.31.2.559.2.137 0 .263-.01.379-.031.116-.022.225-.054.327-.098v1.45a4.158 4.158 0 0 1-.475.124 3.272 3.272 0 0 1-.655.058zm4.835.013c-.908 0-1.615-.194-2.12-.583-.505-.388-.775-.95-.81-1.683h1.735c.043.302.148.537.315.706.167.168.456.252.867.252.36 0 .625-.065.796-.194a.643.643 0 0 0 .257-.544.565.565 0 0 0-.314-.524c-.21-.117-.56-.21-1.047-.279a7.145 7.145 0 0 1-1.137-.259 2.327 2.327 0 0 1-.765-.401 1.39 1.39 0 0 1-.443-.602 2.395 2.395 0 0 1-.135-.848c0-.354.075-.663.225-.926a2.11 2.11 0 0 1 .597-.667c.24-.173.52-.302.842-.389.32-.086.653-.13.995-.13.369 0 .713.038 1.035.11.32.074.605.193.854.357.24.164.437.38.59.647.155.268.253.596.296.985H85.1c-.052-.277-.159-.482-.322-.615-.162-.134-.406-.201-.732-.201-.3 0-.533.065-.7.194a.61.61 0 0 0-.25.505c0 .216.094.376.282.48.189.103.527.19 1.015.258.42.06.792.138 1.118.233.325.095.6.22.822.376.214.164.379.367.495.608.115.242.173.544.173.907 0 .734-.248 1.288-.745 1.664-.497.375-1.19.563-2.081.563z"/>
    </g>
</svg>
