<svg xmlns="http://www.w3.org/2000/svg" width="48" height="48" viewBox="0 0 48 48">
    <path fill="#0146F5" fill-rule="nonzero" d="M27.023 38.807V24.27l1.174 1.22c1.62 1.68 3.631 2.516 6.074 2.516 1.41 0 2.71-.27 3.906-.808a9.542 9.542 0 0 0 3.123-2.236 10.576 10.576 0 0 0 2.08-3.336c.501-1.267.752-2.64.752-4.123 0-1.485-.251-2.873-.753-4.168s-1.2-2.417-2.096-3.37a9.977 9.977 0 0 0-3.17-2.262c-1.21-.55-2.515-.827-3.924-.827-2.53 0-4.493.913-5.947 2.755l-1.22 1.544V7.537h-5.374l-.095.028h-.617V23.81l-1.182-1.266c-1.592-1.704-3.586-2.55-6.025-2.55-1.464 0-2.797.276-4.006.827a9.512 9.512 0 0 0-3.122 2.254 10.136 10.136 0 0 0-2.018 3.348 11.603 11.603 0 0 0-.715 4.074c0 1.513.251 2.915.753 4.21s1.2 2.416 2.096 3.37a9.771 9.771 0 0 0 3.147 2.24c1.195.537 2.51.807 3.947.807 2.503 0 4.452-.912 5.906-2.755l1.22-1.544v3.638h6.1V38.82l-.014-.014zM21.648 6.161h5.375c.743 0 1.348.597 1.367 1.34C29.95 6.17 31.892 5.5 34.19 5.5c1.6 0 3.098.316 4.487.95a11.345 11.345 0 0 1 3.6 2.569c1.019 1.084 1.811 2.357 2.376 3.815.565 1.458.847 3.015.847 4.669 0 1.655-.282 3.2-.849 4.632a11.953 11.953 0 0 1-2.35 3.766 10.91 10.91 0 0 1-3.566 2.554c-1.375.618-2.865.927-4.464.927-2.252 0-4.22-.632-5.88-1.888v10.743l.013.014v2.212c0 .76-.612 1.376-1.368 1.376h-6.1A1.372 1.372 0 0 1 19.57 40.5c-1.554 1.33-3.483 2-5.758 2-1.626 0-3.13-.309-4.505-.927a11.139 11.139 0 0 1-3.583-2.55c-1.019-1.085-1.811-2.358-2.376-3.816-.565-1.458-.847-3.03-.847-4.71 0-1.596.267-3.116.802-4.556a11.512 11.512 0 0 1 2.291-3.797 10.88 10.88 0 0 1 3.566-2.577c1.39-.633 2.915-.95 4.57-.95 2.245 0 4.2.638 5.84 1.905V7.565c0-.76.612-1.377 1.367-1.377h.439c.09-.018.18-.027.273-.027z"/>
</svg>
