<svg xmlns="http://www.w3.org/2000/svg" xmlns:xlink="http://www.w3.org/1999/xlink" width="24" height="24" viewBox="0 0 24 24">
    <defs>
        <path id="a" d="M20.888 16.92c.013-.532-.357-.969-.85-1.038a13.845 13.845 0 0 1-3.032-.756.998.998 0 0 0-1.05.221l-1.27 1.27a1 1 0 0 1-1.202.162 17 17 0 0 1-6.375-6.375 1 1 0 0 1 .162-1.201l1.266-1.266a1 1 0 0 0 .224-1.057 13.817 13.817 0 0 1-.753-3.02A1.003 1.003 0 0 0 6.998 3H4a1 1 0 0 0-.996 1.074 18.8 18.8 0 0 0 2.92 8.24 18.511 18.511 0 0 0 5.7 5.697 18.774 18.774 0 0 0 8.175 2.913 1 1 0 0 0 1.09-1.004v-3zm-7.617-1.717l1.201-.162c-.22-.125-.436-.255-.648-.39l-.553.552zm9.617 4.713a3 3 0 0 1-3.288 2.998 20.78 20.78 0 0 1-9.058-3.22 20.49 20.49 0 0 1-6.303-6.3A20.805 20.805 0 0 1 1.012 4.27 3 3 0 0 1 3.998 1h2.99A3.002 3.002 0 0 1 9.99 3.59c.116.885.333 1.754.644 2.588a3.002 3.002 0 0 1-.679 3.17l-.717.716a15 15 0 0 0 4.586 4.586l.721-.721a3 3 0 0 1 3.163-.676c.836.312 1.706.529 2.6.647a3 3 0 0 1 2.58 3.031v2.985z"/>
    </defs>
    <g fill="none" fill-rule="evenodd">
        <mask id="b" fill="#fff">
            <use xlink:href="#a"/>
        </mask>
        <use fill="#000" fill-rule="nonzero" xlink:href="#a"/>
        <g fill="#AFB4BE" mask="url(#b)">
            <path d="M0 0h24v24H0z"/>
        </g>
    </g>
</svg>
